<?xml version="1.0" encoding="utf-8"?>
<!-- Generator: Adobe Illustrator 28.0.0, SVG Export Plug-In . SVG Version: 6.00 Build 0)  -->
<svg version="1.1" id="Livello_1" xmlns="http://www.w3.org/2000/svg" xmlns:xlink="http://www.w3.org/1999/xlink" x="0px" y="0px"
	 viewBox="0 0 286.3 124.72" style="enable-background:new 0 0 286.3 124.72;" xml:space="preserve">
<style type="text/css">
	.st0{fill:#169FDB;}
	.st1{fill:#EE7203;}
	.st2{fill:#B5B2B2;}
	.st3{fill:#FFFFFF;}
	.st4{fill:#201F1F;}
	.st5{fill:#3F3F3E;}
</style>
<g>
	<g id="FM_00000088834001290842930050000002992722488547692715_">
		<path id="M_00000176748291508405219040000015586408712060202174_" class="st0" d="M142.61,120.84c-9.12,0-12.19-8.34-12.19-12.15
			v-60.1c0-10.88-2.9-23.85-16.7-23.85c-0.08,0-1.18,0.03-1.4,0.04c-9.67,0.56-14.83,7.84-15.33,21.63
			c-0.01,0.36-0.04,1.82-0.04,2.18v4.48c0,2.93-2.37,5.3-5.3,5.3H79.57c-3.84,0-6.94-3.11-6.94-6.94v-2.84
			c0-29.14,15.72-47.24,41.02-47.24c11.79,0,21.76,3.99,28.95,11.56c7.18-7.57,17.13-11.56,28.86-11.56
			c25.35,0,41.09,18.1,41.09,47.24v59.79c0,6.84-5.44,12.43-12.12,12.46c-3.67,0-7.05-1.57-9.4-4.38c-1.91-2.28-2.8-5.26-2.8-8.23
			l0-59.64c0-10.88-2.9-23.85-16.7-23.85c-11.1,0-16.74,7.98-16.78,23.71l-0.01,59.94C154.74,116.42,150.43,120.84,142.61,120.84z"
			/>
		<path id="Baffo_00000058564666685397082170000011586347195345201063_" class="st1" d="M127.32,82.83
			c-42.81,20.81-73.07,32.88-124.73,6.76c-0.83-0.42-1.61,0.69-0.9,1.3c34.42,30.08,87.89,38.12,143.88,10.03
			c2.35-1.18,13.39-6.8,13.39-6.8c41.3-19.93,72.98-32.83,124.74-6.75c0.83,0.42,1.6-0.69,0.9-1.3
			c-34.42-30.09-87.89-38.14-143.89-10.04C138.37,77.21,130.64,81.21,127.32,82.83z"/>
		<path id="F_00000124157079702218742030000014520893816857907094_" class="st2" d="M84.33,120.84c-6.45,0-11.69-5.25-11.69-11.69
			v-41.2c0-3.58,2.91-6.49,6.49-6.49h17.83v0.02h15.12c6.45,0,11.7,5.25,11.7,11.69s-5.25,11.69-11.7,11.69h-13.3
			c-1,0-1.82,0.82-1.82,1.82v22.45c0,6.45-5.25,11.7-11.7,11.7H84.33z"/>
	</g>
	<path id="solution_00000127041020497921928460000016282354381850260614_" class="st3" d="M198.94,69.4
		c-0.11-0.15-0.18-0.31,0.02-0.47l0.08-0.08c0.16-0.13,0.3-0.18,0.48,0.01c0.37,0.42,0.87,0.66,1.43,0.66
		c0.69,0,1.16-0.31,1.16-0.81c0-0.64-0.63-0.87-1.34-1.16c-0.8-0.33-1.6-0.67-1.6-1.58c0-0.94,0.75-1.56,1.9-1.56
		c0.61,0,1.23,0.2,1.71,0.72c0.13,0.13,0.2,0.29,0.02,0.48l-0.08,0.08c-0.12,0.12-0.29,0.2-0.48,0.02c-0.42-0.4-0.72-0.54-1.19-0.54
		c-0.6,0-0.98,0.29-0.98,0.72c0,0.45,0.45,0.66,1.07,0.93c0.97,0.42,1.87,0.74,1.87,1.88c0,0.97-0.81,1.6-2.01,1.6
		C200.28,70.3,199.45,70,198.94,69.4z M204.03,67.36c0-1.66,1.27-2.95,2.99-2.95s2.99,1.28,2.99,2.95c0,1.66-1.27,2.94-2.99,2.94
		S204.03,69.02,204.03,67.36z M209.11,67.36c0-1.24-0.87-2.15-2.09-2.15c-1.21,0-2.09,0.91-2.09,2.15c0,1.24,0.87,2.15,2.09,2.15
		C208.25,69.51,209.11,68.6,209.11,67.36z M211.48,69.84v-7.31c0-0.17,0.1-0.27,0.3-0.33l0.24-0.06c0.25-0.07,0.35,0.07,0.35,0.3
		v7.39c0,0.19-0.11,0.33-0.3,0.33h-0.28C211.59,70.17,211.48,70.03,211.48,69.84z M219.01,64.82v5.03c0,0.19-0.11,0.33-0.3,0.33
		h-0.22c-0.19,0-0.3-0.13-0.3-0.33v-0.36c-0.38,0.51-0.98,0.82-1.79,0.82c-1.34,0-2.23-0.93-2.23-2.33v-3.16
		c0-0.2,0.11-0.33,0.3-0.33h0.29c0.19,0,0.29,0.12,0.29,0.33v3.14c0,0.93,0.6,1.56,1.49,1.56c0.96,0,1.57-0.64,1.57-1.63v-3.07
		c0-0.2,0.1-0.33,0.29-0.33h0.29C218.89,64.49,219.01,64.62,219.01,64.82z M223.77,70c-0.28,0.19-0.61,0.3-1.03,0.3
		c-0.99,0-1.69-0.61-1.69-1.8v-3.27h-0.63c-0.19,0-0.32-0.11-0.32-0.3V64.8c0-0.19,0.12-0.3,0.32-0.3h0.63v-1.57
		c0-0.17,0.1-0.27,0.3-0.33l0.24-0.06c0.25-0.07,0.35,0.07,0.35,0.3v1.65h1.43c0.2,0,0.33,0.11,0.33,0.3v0.14
		c0,0.19-0.12,0.3-0.33,0.3h-1.43v3.24c0,0.73,0.35,1.05,0.89,1.05c0.22,0,0.39-0.08,0.58-0.19c0.22-0.13,0.35-0.06,0.45,0.11
		l0.07,0.12C224.05,69.76,223.89,69.92,223.77,70z M224.68,62.76c0-0.38,0.31-0.7,0.7-0.7c0.38,0,0.7,0.31,0.7,0.7
		c0,0.39-0.31,0.7-0.7,0.7C225,63.46,224.68,63.15,224.68,62.76z M224.93,69.84v-5.03c0-0.2,0.11-0.33,0.3-0.33h0.28
		c0.19,0,0.3,0.12,0.3,0.33v5.03c0,0.19-0.11,0.33-0.3,0.33h-0.28C225.04,70.17,224.93,70.03,224.93,69.84z M227.28,67.36
		c0-1.66,1.27-2.95,2.99-2.95s2.99,1.28,2.99,2.95c0,1.66-1.27,2.94-2.99,2.94S227.28,69.02,227.28,67.36z M232.36,67.36
		c0-1.24-0.87-2.15-2.09-2.15c-1.21,0-2.09,0.91-2.09,2.15c0,1.24,0.87,2.15,2.09,2.15C231.49,69.51,232.36,68.6,232.36,67.36z
		 M239.68,66.75v3.09c0,0.19-0.1,0.33-0.3,0.33h-0.28c-0.19,0-0.3-0.13-0.3-0.33v-3.01c0-0.99-0.61-1.63-1.56-1.63
		c-0.97,0-1.65,0.64-1.65,1.63v3.01c0,0.19-0.1,0.33-0.3,0.33h-0.28c-0.19,0-0.3-0.13-0.3-0.33v-5.03c0-0.2,0.11-0.33,0.3-0.33h0.22
		c0.19,0,0.3,0.12,0.3,0.33v0.46c0.39-0.54,1.03-0.87,1.87-0.87C238.81,64.41,239.68,65.38,239.68,66.75z"/>
	<g id="Scritta_GRAFICHE_00000122692195963337765060000009999406434781682061_">
		<path class="st3" d="M44.38,123.38c-6.93,0-12.17-2.51-16.51-7.89c-0.69-0.92-0.74-1.7-0.66-2.2c0.08-0.49,0.35-1.22,1.24-1.85
			l0.25-0.19c0.47-0.29,1.04-0.58,1.73-0.58c0.57,0,1.39,0.21,2.09,1.19c3.03,3.99,6.71,5.78,11.93,5.78
			c7.16,0,11.44-4.17,11.44-11.16v-3.36c-3.07,2.77-7.12,4.27-11.71,4.27c-10.11,0-17.73-7.45-17.73-17.33
			c0-9.83,7.65-17.25,17.8-17.25c4.66,0,8.74,1.52,11.78,4.33v-1.08c0-1.58,1.03-2.64,2.56-2.64h0.83c1.53,0,2.56,1.06,2.56,2.64
			v30.34C61.98,116.87,55.24,123.38,44.38,123.38z M44.31,78.62c-6.85,0-11.64,4.7-11.64,11.44c0,6.77,4.79,11.51,11.64,11.51
			c6.9,0,11.71-4.7,11.71-11.44C56.03,83.35,51.21,78.62,44.31,78.62z M242.66,111.31c-9.5,0-19.11-6.59-19.11-19.18
			c0-11.2,7.72-19.32,18.36-19.32c5.43,0,10.17,2.16,13.33,6.09c2.96,3.31,4.61,7.76,4.61,12.47c0,1.79-1.25,3.05-3.04,3.05h-26.83
			c0.91,6.58,5.91,11.07,12.56,11.07c4.03,0,8.05-1.71,11.02-4.69c0.7-0.6,1.36-0.86,2.02-0.86c0.49,0,1.21,0.15,1.93,0.86
			l0.34,0.29c1.13,1.12,1.13,2.59,0.05,3.82C253.4,109.64,247.08,111.31,242.66,111.31z M253.42,88.59
			c-0.42-2.21-1.24-4.08-2.44-5.59c-2.04-2.89-5.16-4.38-9.07-4.38c-6.2,0-10.74,3.87-11.88,9.98H253.42z M171.3,111.31
			c-11.02,0-19.32-8.28-19.32-19.25c0-10.98,8.31-19.26,19.32-19.26c5.82,0,10.71,2.1,14.52,6.24c1.17,1.17,1.19,2.63,0.04,3.78
			l-0.34,0.34c-0.66,0.59-1.3,0.86-1.96,0.86c-0.71,0-1.38-0.31-2-0.93c-2.99-3.11-6.15-4.48-10.26-4.48
			c-7.59,0-13.09,5.68-13.09,13.51c0,7.87,5.38,13.36,13.09,13.36c4.12,0,7.28-1.38,10.25-4.46c0.63-0.63,1.3-0.94,2.01-0.94
			c0.66,0,1.3,0.27,1.91,0.81l0.4,0.39c1.15,1.15,1.13,2.62-0.07,3.82C182.01,109.21,177.13,111.31,171.3,111.31z M99.08,111.31
			c-8.67,0-14.49-4.91-14.49-12.22c0-7.47,6.24-12.49,15.53-12.49c3.55,0,7,0.73,10.26,2.18v-1.97c0-4.98-3.65-8.19-9.3-8.19
			c-3.61,0-7.23,1.39-10.49,4.02c-0.53,0.44-1.1,0.67-1.67,0.67c-0.71,0-1.37-0.34-1.96-1.01l-0.31-0.39
			c-0.46-0.55-0.68-1.22-0.62-1.91c0.07-0.76,0.5-1.5,1.21-2.08c4.58-3.53,8.89-5.1,13.99-5.1c9.37,0,15.19,5.66,15.19,14.77v20.2
			c0,1.67-0.98,2.71-2.56,2.71h-0.89c-1.51,0-2.57-1.11-2.57-2.71v-0.63C107.38,109.79,103.35,111.31,99.08,111.31z M100.19,92.34
			c-5.69,0-9.37,2.67-9.37,6.81c0,3.79,3.4,6.33,8.47,6.33c5.37,0,11.09-3.04,11.09-8.67v-1.88
			C107.74,93.69,104.02,92.34,100.19,92.34z M217.61,110.48c-1.51,0-2.56-1.11-2.56-2.71V88.4c0-6.08-3.67-9.85-9.57-9.85
			c-6.14,0-10.27,4.02-10.27,9.99v19.23c0,1.59-1.05,2.71-2.56,2.71h-0.96c-1.51,0-2.56-1.11-2.56-2.71V61.92
			c0-0.93,0.38-2.14,2.16-2.65l0.87-0.22c0.28-0.08,0.59-0.13,0.87-0.13c1.06,0,2.18,0.68,2.18,2.59v15.23
			c2.78-2.56,6.52-3.93,10.82-3.93c9.04,0,15.11,6.13,15.11,15.25v19.72c0,1.59-1.05,2.71-2.56,2.71H217.61z M146.62,110.48
			c-1.49,0-2.56-1.14-2.56-2.71V78.97h-13.22v28.95c0,1.56-1,2.56-2.56,2.56h-0.97c-1.56,0-2.56-1.01-2.56-2.56V78.97h-3.37
			c-1.58,0-2.56-0.96-2.56-2.5v-0.55c0-1.49,1.03-2.5,2.56-2.5h3.37v-1.37c0-9.67,6.03-13.11,11.67-13.11
			c2.05,0,3.87,0.45,5.41,1.33c0.73,0.44,1.15,0.93,1.37,1.41c0.8-1.35,2.25-2.25,3.91-2.25c2.55,0,4.63,2.08,4.63,4.63
			s-2.08,4.63-4.63,4.63c-2.29,0-4.2-1.73-4.52-3.97c-0.64,0.88-1.39,1.07-1.94,1.07c-0.58,0-1.08-0.21-1.45-0.4
			c-1.09-0.54-1.72-0.71-2.72-0.71c-3.8,0-5.64,2.41-5.64,7.37v1.37h16.75c1.55,0,2.56,1.01,2.56,2.56v31.79
			c0,1.59-1.05,2.71-2.56,2.71H146.62z M66.95,110.48c-1.48,0-2.56-1.14-2.56-2.71V76.06c0-1.53,1.08-2.64,2.56-2.64h0.83
			c1.53,0,2.56,1.06,2.56,2.64v0.44c2.16-2.41,5.04-3.69,8.4-3.69c1.46,0,2.49,0.14,3.79,0.53c0.71,0.21,1.25,0.63,1.56,1.22
			c0.33,0.64,0.34,1.39,0.05,2.23l-0.11,0.45c-0.4,1.21-1.24,1.86-2.34,1.86c-0.35,0-0.72-0.07-1.12-0.2
			c-0.87-0.25-1.52-0.36-2.17-0.36c-4.55,0-7.85,4.55-7.85,10.82v18.41c0,1.57-1.08,2.71-2.56,2.71H66.95z"/>
		<path class="st4" d="M60.8,76.06v30.34c0,10.75-7.38,15.79-16.42,15.79c-6.69,0-11.59-2.48-15.58-7.45
			c-0.62-0.83-0.62-1.66,0.34-2.35l0.28-0.21c0.69-0.41,1.45-0.62,2.14,0.35c3.03,4,6.96,6.27,12.89,6.27
			c7.38,0,12.62-4.2,12.62-12.34v-6.42c-2.83,3.79-7.31,6.14-12.89,6.14c-9.59,0-16.55-7.04-16.55-16.14
			c0-9.03,6.96-16.07,16.62-16.07c5.65,0,10.21,2.42,12.96,6.28v-4.2c0-0.9,0.48-1.45,1.38-1.45h0.83
			C60.31,74.61,60.8,75.16,60.8,76.06z M57.21,90.12c0-7.31-5.31-12.69-12.9-12.69c-7.66,0-12.82,5.38-12.82,12.62
			c0,7.31,5.17,12.69,12.82,12.69S57.21,97.44,57.21,90.12z M83.02,76.4l-0.14,0.55c-0.34,1.03-1.1,1.1-1.93,0.83
			c-0.96-0.28-1.72-0.42-2.55-0.42c-5.24,0-9.04,5.03-9.04,12v18.41c0,0.9-0.55,1.52-1.38,1.52h-1.04c-0.82,0-1.37-0.62-1.37-1.52
			V76.06c0-0.9,0.55-1.45,1.37-1.45h0.83c0.89,0,1.37,0.55,1.37,1.45v4.41c1.86-4,5.17-6.49,9.59-6.49c1.38,0,2.28,0.13,3.45,0.48
			C82.88,74.68,83.43,75.23,83.02,76.4z M115.22,87.57v20.2c0,1.04-0.48,1.52-1.38,1.52h-0.89c-0.9,0-1.39-0.62-1.39-1.52v-3.65
			c-2.83,3.79-7.52,6-12.48,6c-7.93,0-13.31-4.41-13.31-11.03c0-6.76,5.79-11.31,14.34-11.31c4.48,0,8.34,1.24,11.44,2.89v-3.86
			c0-5.58-4.13-9.38-10.48-9.38c-3.72,0-7.65,1.39-11.24,4.28c-0.83,0.69-1.45,0.42-2-0.21l-0.27-0.34
			c-0.69-0.83-0.35-1.72,0.41-2.34c4.48-3.45,8.55-4.83,13.24-4.83C110.12,73.99,115.22,79.16,115.22,87.57z M111.56,96.82v-2.62
			c-2.48-1.24-6.82-3.03-11.38-3.03c-6.34,0-10.55,3.18-10.55,8c0,4.49,3.93,7.52,9.65,7.52
			C105.43,106.67,111.56,103.02,111.56,96.82z M148.96,75.99v31.79c0,0.9-0.48,1.52-1.37,1.52h-0.97c-0.83,0-1.38-0.62-1.38-1.52
			V77.78h-15.59v30.13c0,0.89-0.48,1.38-1.37,1.38h-0.97c-0.89,0-1.38-0.48-1.38-1.38V77.78h-4.55c-0.89,0-1.37-0.42-1.37-1.31
			v-0.55c0-0.83,0.48-1.31,1.37-1.31h4.55v-2.55c0-8.42,4.82-11.93,10.48-11.93c1.72,0,3.38,0.34,4.82,1.17
			c0.69,0.42,1.31,0.97,0.76,2.07l-0.21,0.41c-0.62,1.1-1.37,0.89-2.07,0.55c-1.24-0.62-2.07-0.83-3.24-0.83
			c-4.07,0-6.83,2.48-6.83,8.55v2.55h17.94C148.48,74.61,148.96,75.09,148.96,75.99z M150.55,64.06c0,1.86-1.51,3.44-3.44,3.44
			c-1.86,0-3.38-1.58-3.38-3.44c0-1.86,1.51-3.44,3.38-3.44C149.03,60.61,150.55,62.19,150.55,64.06z M153.16,92.06
			c0-10.21,7.66-18.07,18.14-18.07c4.76,0,9.65,1.52,13.65,5.86c0.55,0.55,0.9,1.31,0.07,2.14l-0.34,0.34
			c-0.63,0.55-1.39,0.83-2.28-0.07c-3.72-3.86-7.45-4.83-11.1-4.83c-8.34,0-14.28,6.28-14.28,14.69c0,8.21,5.66,14.55,14.28,14.55
			c3.65,0,7.38-0.96,11.1-4.82c0.89-0.89,1.66-0.62,2.28-0.07l0.34,0.34c0.83,0.83,0.48,1.59-0.07,2.14
			c-4,4.35-8.89,5.86-13.65,5.86C160.82,110.12,153.16,102.26,153.16,92.06z M219.95,88.06v19.72c0,0.9-0.48,1.52-1.38,1.52h-0.96
			c-0.89,0-1.38-0.62-1.38-1.52V88.4c0-6.69-4.21-11.03-10.76-11.03c-6.76,0-11.45,4.55-11.45,11.18v19.24
			c0,0.9-0.48,1.52-1.38,1.52h-0.96c-0.89,0-1.38-0.62-1.38-1.52V61.92c0-0.75,0.34-1.24,1.31-1.51l0.83-0.21
			c1.17-0.34,1.58,0.28,1.58,1.31v18.41c2.48-3.66,6.62-5.93,12-5.93C214.5,73.99,219.95,79.71,219.95,88.06z M242.52,106.67
			c3.86,0,8.34-1.51,11.86-5.03c0.89-0.75,1.66-0.62,2.27,0l0.41,0.35c0.76,0.75,0.42,1.58-0.07,2.13c-3.93,4.14-9.65,6-14.34,6
			c-9.38,0-17.93-6.69-17.93-18c0-10.35,7.17-18.14,17.18-18.14c5.31,0,9.58,2.14,12.41,5.65c2.83,3.18,4.35,7.38,4.35,11.73
			c0,1.1-0.69,1.86-1.86,1.86h-28.14C229.14,101.71,235.42,106.67,242.52,106.67z M228.66,89.78h26.13
			c-0.34-2.97-1.31-5.52-2.89-7.52c-2.14-3.03-5.58-4.83-10-4.83C234.59,77.43,229.42,82.4,228.66,89.78z"/>
		<path class="st5" d="M44.38,122.33c-6.58,0-11.57-2.38-15.69-7.49c-0.36-0.49-0.51-0.95-0.44-1.39c0.07-0.43,0.34-0.82,0.81-1.16
			l0.28-0.21c0.63-0.38,1.54-0.73,2.33,0.38c3.21,4.24,7.27,6.21,12.78,6.21c7.82,0,12.48-4.56,12.48-12.2v-6.01
			c-2.97,3.79-7.48,5.87-12.75,5.87c-9.51,0-16.69-7-16.69-16.28c0-9.23,7.2-16.2,16.76-16.2c5.36,0,9.89,2.12,12.82,5.99v-3.78
			c0-0.99,0.57-1.59,1.52-1.59h0.83c0.95,0,1.52,0.59,1.52,1.59v30.34C60.93,118.14,52.38,122.33,44.38,122.33z M30.43,111.98
			c-0.32,0-0.63,0.15-0.94,0.33l-0.27,0.2c-0.41,0.3-0.65,0.62-0.7,0.98c-0.06,0.36,0.08,0.76,0.39,1.18
			c4.06,5.04,8.98,7.38,15.47,7.38c7.87,0,16.28-4.11,16.28-15.65V76.06c0-0.85-0.44-1.31-1.24-1.31h-0.83
			c-0.8,0-1.24,0.47-1.24,1.31v4.2c0,0.06-0.04,0.11-0.1,0.13c-0.06,0.02-0.12,0-0.15-0.05c-2.86-4.01-7.43-6.21-12.85-6.21
			c-9.4,0-16.48,6.85-16.48,15.92c0,9.12,7.06,16,16.41,16c5.33,0,9.87-2.16,12.78-6.08c0.04-0.05,0.1-0.07,0.15-0.05
			c0.06,0.02,0.09,0.07,0.09,0.13v6.42c0,7.81-4.77,12.48-12.76,12.48c-5.6,0-9.73-2.01-13-6.33
			C31.11,112.15,30.77,111.98,30.43,111.98z M44.31,102.88c-7.63,0-12.96-5.27-12.96-12.83c0-7.51,5.33-12.76,12.96-12.76
			c7.55,0,13.04,5.4,13.04,12.83C57.35,97.63,51.98,102.88,44.31,102.88z M44.31,77.57c-7.47,0-12.68,5.13-12.68,12.48
			c0,7.39,5.22,12.55,12.68,12.55c7.51,0,12.76-5.13,12.76-12.48C57.07,82.85,51.7,77.57,44.31,77.57z M67.98,109.43h-1.04
			c-0.89,0-1.51-0.68-1.51-1.66V76.06c0-0.97,0.59-1.59,1.51-1.59h0.83c0.95,0,1.51,0.59,1.51,1.59v3.82
			c2.01-3.89,5.34-6.03,9.45-6.03c1.37,0,2.28,0.13,3.49,0.49c0.44,0.13,0.75,0.37,0.92,0.7c0.19,0.37,0.19,0.84,0,1.4l-0.14,0.55
			c-0.32,0.97-1.03,1.28-2.11,0.92c-1.01-0.29-1.74-0.41-2.51-0.41c-5.16,0-8.9,4.99-8.9,11.86v18.41
			C69.5,108.75,68.88,109.43,67.98,109.43z M66.95,74.75c-0.76,0-1.23,0.5-1.23,1.32v31.72c0,0.83,0.5,1.38,1.23,1.38h1.04
			c0.74,0,1.24-0.56,1.24-1.38V89.37c0-7.03,3.86-12.14,9.17-12.14c0.79,0,1.54,0.12,2.59,0.42c0.93,0.31,1.49,0.08,1.76-0.74
			l0.14-0.54c0,0,0-0.01,0-0.01c0.17-0.49,0.18-0.89,0.02-1.19c-0.17-0.33-0.51-0.49-0.76-0.56c-1.18-0.35-2.08-0.48-3.41-0.48
			c-4.18,0-7.54,2.27-9.46,6.41c-0.03,0.06-0.09,0.09-0.15,0.08c-0.06-0.01-0.11-0.07-0.11-0.13v-4.41c0-0.85-0.44-1.32-1.23-1.32
			H66.95z M99.09,110.26c-8.04,0-13.45-4.49-13.45-11.17c0-6.85,5.82-11.45,14.48-11.45c3.93,0,7.74,0.94,11.31,2.8v-3.63
			c0-5.53-4.16-9.24-10.35-9.24c-3.85,0-7.7,1.47-11.14,4.25c-0.78,0.65-1.5,0.58-2.2-0.23l-0.27-0.34c-0.3-0.36-0.44-0.76-0.4-1.17
			c0.05-0.48,0.34-0.96,0.83-1.36c4.38-3.36,8.48-4.86,13.33-4.86c8.86,0,14.15,5.13,14.15,13.72v20.21c0,1.08-0.52,1.66-1.52,1.66
			h-0.9c-0.94,0-1.52-0.63-1.52-1.66v-3.26C108.58,108.12,104,110.26,99.09,110.26z M100.12,87.92c-8.5,0-14.2,4.49-14.2,11.17
			c0,6.52,5.29,10.89,13.17,10.89c4.97,0,9.6-2.22,12.37-5.94c0.04-0.05,0.1-0.07,0.15-0.05c0.06,0.02,0.09,0.07,0.09,0.13v3.66
			c0,0.87,0.46,1.38,1.24,1.38h0.9c0.84,0,1.24-0.45,1.24-1.38V87.57c0-8.42-5.19-13.44-13.87-13.44c-4.78,0-8.83,1.48-13.16,4.8
			c-0.43,0.35-0.69,0.77-0.73,1.17c-0.03,0.34,0.08,0.66,0.34,0.97l0.27,0.34c0.6,0.69,1.14,0.75,1.81,0.19
			c3.49-2.82,7.41-4.31,11.32-4.31c6.36,0,10.63,3.82,10.63,9.52v3.86c0,0.05-0.03,0.09-0.07,0.12c-0.04,0.02-0.09,0.03-0.14,0
			C107.91,88.89,104.08,87.92,100.12,87.92z M99.29,106.81c-5.85,0-9.79-3.07-9.79-7.65c0-4.87,4.3-8.14,10.69-8.14
			c4.42,0,8.66,1.66,11.44,3.04c0.05,0.02,0.08,0.07,0.08,0.12v2.63c0,3.73-2.12,6.06-3.89,7.36
			C105.53,105.85,102.43,106.81,99.29,106.81z M100.19,91.3c-6.33,0-10.41,3.09-10.41,7.86c0,4.41,3.82,7.37,9.51,7.37
			c7.89,0,12.14-5,12.14-9.71v-2.55C108.68,92.91,104.52,91.3,100.19,91.3z M147.59,109.43h-0.97c-0.89,0-1.52-0.68-1.52-1.66V77.92
			h-15.31v30c0,0.98-0.54,1.52-1.51,1.52h-0.97c-0.96,0-1.52-0.55-1.52-1.52v-30h-4.42c-0.99,0-1.51-0.5-1.51-1.45v-0.55
			c0-0.92,0.55-1.45,1.51-1.45h4.42v-2.41c0-11.2,8.13-12.07,10.62-12.07c1.87,0,3.51,0.4,4.89,1.19c0.74,0.44,1.41,1.06,0.81,2.25
			l-0.21,0.41c-0.67,1.19-1.51,0.98-2.25,0.61c-1.22-0.61-2.03-0.81-3.18-0.81c-4.38,0-6.69,2.91-6.69,8.41v2.41h17.8
			c0.97,0,1.51,0.54,1.51,1.52v31.79C149.1,108.8,148.52,109.43,147.59,109.43z M129.65,77.65h15.59c0.08,0,0.14,0.06,0.14,0.14
			v29.99c0,0.83,0.5,1.38,1.24,1.38h0.97c0.77,0,1.24-0.52,1.24-1.38V75.99c0-0.82-0.42-1.24-1.24-1.24h-17.94
			c-0.08,0-0.14-0.06-0.14-0.14v-2.55c0-7.18,3.79-8.69,6.97-8.69c1.2,0,2.04,0.21,3.3,0.84c0.78,0.38,1.36,0.44,1.88-0.5l0.21-0.41
			c0.47-0.93,0.05-1.43-0.71-1.89c-1.33-0.76-2.93-1.15-4.75-1.15c-6.48,0-10.34,4.41-10.34,11.79v2.55c0,0.08-0.06,0.14-0.14,0.14
			h-4.55c-0.81,0-1.23,0.41-1.23,1.17v0.55c0,0.8,0.39,1.17,1.23,1.17h4.55c0.08,0,0.14,0.06,0.14,0.14v30.13
			c0,0.82,0.42,1.24,1.24,1.24h0.97c0.82,0,1.23-0.42,1.23-1.24V77.78C129.51,77.71,129.58,77.65,129.65,77.65z M147.1,67.64
			c-1.91,0-3.52-1.64-3.52-3.58c0-1.94,1.61-3.58,3.52-3.58c1.97,0,3.58,1.61,3.58,3.58S149.08,67.64,147.1,67.64z M147.1,60.75
			c-1.76,0-3.24,1.51-3.24,3.31c0,1.79,1.48,3.31,3.24,3.31c1.82,0,3.31-1.48,3.31-3.31C150.41,62.24,148.93,60.75,147.1,60.75z
			 M171.3,110.26c-10.42,0-18.28-7.83-18.28-18.2c0-10.38,7.86-18.21,18.28-18.21c5.52,0,10.14,1.99,13.75,5.9
			c0.78,0.78,0.81,1.59,0.07,2.33l-0.34,0.34c-0.86,0.76-1.67,0.74-2.47-0.07c-3.19-3.31-6.58-4.79-11-4.79
			c-8.19,0-14.14,6.12-14.14,14.56c0,8.48,5.81,14.41,14.14,14.41c4.42,0,7.82-1.47,11-4.78c0.81-0.81,1.62-0.83,2.47-0.08
			l0.35,0.35c0.74,0.74,0.71,1.55-0.07,2.33C181.45,108.28,176.82,110.26,171.3,110.26z M171.3,74.13c-10.26,0-18,7.71-18,17.93
			c0,10.22,7.74,17.93,18,17.93c5.44,0,10-1.96,13.55-5.82c0.68-0.68,0.71-1.32,0.08-1.95l-0.34-0.34
			c-0.74-0.65-1.39-0.63-2.09,0.07c-3.24,3.36-6.7,4.86-11.2,4.86c-8.35,0-14.41-6.18-14.41-14.68c0-8.59,6.06-14.83,14.41-14.83
			c4.5,0,7.95,1.5,11.2,4.87c0.7,0.7,1.34,0.72,2.09,0.06l0.34-0.34c0.63-0.63,0.6-1.27-0.08-1.95
			C181.3,76.08,176.74,74.13,171.3,74.13z M218.57,109.43h-0.96c-0.94,0-1.52-0.64-1.52-1.66V88.4c0-6.62-4.17-10.9-10.62-10.9
			c-6.66,0-11.31,4.54-11.31,11.04v19.23c0,1.02-0.58,1.66-1.52,1.66h-0.96c-0.94,0-1.52-0.64-1.52-1.66V61.92
			c0-0.86,0.43-1.37,1.41-1.65l0.84-0.21c0.54-0.16,0.97-0.13,1.27,0.1c0.32,0.24,0.48,0.69,0.48,1.35v17.98
			c2.64-3.64,6.84-5.64,11.87-5.64c8.41,0,14.06,5.71,14.06,14.21v19.72C220.09,108.8,219.5,109.43,218.57,109.43z M205.47,77.23
			c6.62,0,10.9,4.39,10.9,11.17v19.38c0,0.87,0.46,1.38,1.24,1.38h0.96c0.79,0,1.24-0.5,1.24-1.38V88.06
			c0-8.33-5.54-13.93-13.79-13.93c-5.1,0-9.32,2.09-11.89,5.87c-0.03,0.05-0.1,0.07-0.15,0.05c-0.06-0.02-0.1-0.07-0.1-0.13V61.51
			c0-0.56-0.12-0.94-0.37-1.13c-0.23-0.17-0.58-0.19-1.03-0.05l-0.84,0.21c-0.85,0.24-1.2,0.64-1.2,1.38v45.86
			c0,0.87,0.46,1.38,1.24,1.38h0.96c0.78,0,1.24-0.52,1.24-1.38V88.54C193.88,81.88,198.65,77.23,205.47,77.23z M242.66,110.26
			c-8.98,0-18.07-6.23-18.07-18.13c0-10.59,7.28-18.28,17.32-18.28c5.11,0,9.55,2.02,12.51,5.7c2.82,3.15,4.38,7.35,4.38,11.82
			c0,1.21-0.78,2-2,2h-27.98c0.57,9.04,7.49,13.16,13.71,13.16c4.3,0,8.59-1.82,11.76-4.99c0.88-0.74,1.73-0.74,2.47,0l0.4,0.34
			c0.67,0.67,0.65,1.53-0.06,2.33C252.88,108.67,246.87,110.26,242.66,110.26z M241.91,74.13c-9.88,0-17.04,7.57-17.04,18
			c0,11.72,8.95,17.85,17.79,17.85c4.16,0,10.08-1.56,14.24-5.96c0.35-0.4,0.84-1.18,0.07-1.94l-0.4-0.34
			c-0.65-0.65-1.33-0.64-2.09,0c-3.21,3.21-7.57,5.06-11.95,5.06c-7.8,0-13.55-5.58-14-13.57c0-0.04,0.01-0.07,0.04-0.1
			c0.03-0.03,0.06-0.04,0.1-0.04h28.13c1.06,0,1.72-0.66,1.72-1.72c0-4.4-1.53-8.53-4.32-11.64
			C251.3,76.12,246.93,74.13,241.91,74.13z M254.8,89.92h-26.13c-0.04,0-0.08-0.02-0.1-0.05c-0.03-0.03-0.04-0.07-0.04-0.11
			c0.77-7.58,6.02-12.47,13.38-12.47c4.3,0,7.89,1.74,10.1,4.89c1.58,1.99,2.57,4.54,2.92,7.58c0,0.04-0.01,0.08-0.03,0.11
			S254.84,89.92,254.8,89.92z M228.82,89.64h25.82c-0.37-2.92-1.33-5.38-2.85-7.3c-2.17-3.08-5.68-4.78-9.88-4.78
			C234.75,77.57,229.63,82.3,228.82,89.64z"/>
	</g>
</g>
</svg>
